<svg width="46" height="54" viewBox="0 0 46 54" fill="none" xmlns="http://www.w3.org/2000/svg">
<path d="M0.500488 21.0224C0.500488 21.0224 3.01128 21.8462 6.019 21.7133C6.019 21.7133 7.40517 22.5105 7.74517 24.2909C7.74517 24.2909 8.42518 25.8056 10.3083 26.4699H12.0867C12.0867 26.4699 16.716 24.9021 18.2068 20.8098C18.2068 20.8098 18.6776 14.9371 19.0699 14.6182C19.0699 14.6182 19.9591 12.386 22.0515 10.2336C22.0515 10.2336 23.5422 8.47972 24.0392 6.24755C24.0392 6.24755 25.8438 1.43776 26.7069 1.01259C26.7069 1.01259 27.6484 0.374823 28.0931 1.41119C28.0931 1.41119 28.3284 3.43077 28.3807 3.6965C28.3807 3.6965 29.7931 5.15804 28.5638 7.39021C28.5638 7.39021 31.99 11.642 27.8054 16.7972C27.8054 16.7972 28.6423 21.9259 24.4838 26.6559C24.4838 26.6559 32.8269 27.1608 43.524 21.0489C43.524 21.0489 46.8455 19.428 45.1978 22.1385C45.1978 22.1385 43.2363 24.6364 41.0393 25.593C41.0393 25.593 41.3793 28.6489 35.7562 29.393C35.7562 29.393 33.9516 34.3888 27.8838 33.5385C27.8838 33.5385 28.2761 36.2224 23.4638 36.6475L17.4222 36.5413C17.4222 36.5413 24.5361 47.3832 24.9807 49.5888C24.9807 49.5888 26.1576 52.7776 23.5161 50.1203C23.5161 50.1203 26.0792 57.4014 19.6714 49.9343L19.6976 51.7413C19.6976 51.7413 19.4884 52.5385 18.7299 51.6084C18.7299 51.6084 15.6699 49.2965 14.8852 40.421C14.8852 40.421 5.91438 40.1818 2.43589 29.3399C2.43589 29.3399 2.17435 28.1972 2.85436 26.2042C2.85436 26.2042 3.27282 25.6727 2.46204 24.0252L0.500488 21.0224Z" fill="#FF3131"/>
</svg>
