<svg width="166" height="76" viewBox="0 0 166 76" fill="none" xmlns="http://www.w3.org/2000/svg">
<path d="M59.5005 24.0224C59.5005 24.0224 62.0113 24.8462 65.019 24.7133C65.019 24.7133 66.4052 25.5105 66.7452 27.2909C66.7452 27.2909 67.4252 28.8056 69.3083 29.4699H71.0867C71.0867 29.4699 75.716 27.9021 77.2068 23.8098C77.2068 23.8098 77.6776 17.9371 78.0699 17.6182C78.0699 17.6182 78.9591 15.386 81.0515 13.2336C81.0515 13.2336 82.5422 11.4797 83.0392 9.24755C83.0392 9.24755 84.8438 4.43776 85.7069 4.01259C85.7069 4.01259 86.6484 3.37482 87.0931 4.41119C87.0931 4.41119 87.3284 6.43077 87.3807 6.6965C87.3807 6.6965 88.7931 8.15804 87.5638 10.3902C87.5638 10.3902 90.99 14.642 86.8054 19.7972C86.8054 19.7972 87.6423 24.9259 83.4838 29.6559C83.4838 29.6559 91.8269 30.1608 102.524 24.0489C102.524 24.0489 105.846 22.428 104.198 25.1385C104.198 25.1385 102.236 27.6364 100.039 28.593C100.039 28.593 100.379 31.6489 94.7562 32.393C94.7562 32.393 92.9516 37.3888 86.8838 36.5385C86.8838 36.5385 87.2761 39.2224 82.4638 39.6475L76.4222 39.5413C76.4222 39.5413 83.5361 50.3832 83.9807 52.5888C83.9807 52.5888 85.1576 55.7776 82.5161 53.1203C82.5161 53.1203 85.0792 60.4014 78.6714 52.9343L78.6976 54.7413C78.6976 54.7413 78.4884 55.5385 77.7299 54.6084C77.7299 54.6084 74.6699 52.2965 73.8852 43.421C73.8852 43.421 64.9144 43.1818 61.4359 32.3399C61.4359 32.3399 61.1744 31.1972 61.8544 29.2042C61.8544 29.2042 62.2728 28.6727 61.462 27.0252L59.5005 24.0224Z" fill="#FF3131"/>
<path d="M3.37389 25.7496C3.08619 25.2448 2.92927 24.7133 2.92927 24.2084C2.92927 22.4545 4.60313 21.7636 6.12007 21.7636C7.24469 21.7636 8.08163 22.4014 8.02932 23.3049C10.8278 22.1091 15.6925 21.0727 18.8833 21.0727C22.6233 21.0727 25.3695 22.8266 25.3695 25.2979C25.3695 28.2475 23.5648 30.7189 19.9294 32.3664V32.4727C20.531 32.3664 21.0017 32.3133 21.551 32.3133C26.1541 32.3133 29.2664 35.3958 29.2664 38.6378C29.2664 49.3468 11.7432 53.9972 5.3616 53.9972C3.40004 53.9972 2.4585 53.2 2.4585 51.765C2.4585 50.8615 2.85081 50.1175 3.40004 49.9315V25.7496H3.37389ZM8.10778 33.2965C13.5478 33.0042 20.6094 29.8154 20.6094 26.8126C20.6094 25.8028 19.9294 25.0056 17.0786 25.0056C14.6201 25.0056 10.1216 26.2014 8.10778 27.3972V33.2965ZM8.10778 49.4797C14.4371 48.9217 24.3495 45.1482 24.3495 39.2489C24.3495 37.7077 22.6756 35.6084 18.4648 35.6084C15.7709 35.6084 11.7955 36.3524 9.88626 37.0168C8.5524 37.5217 8.10778 37.9203 8.10778 38.558V49.4797Z" fill="#28C485"/>
<path d="M43.5205 42.3049C40.879 47.6462 40.3297 48.6825 40.1728 49.4797C40.0682 50.1706 40.1205 51.021 40.1205 51.6853C40.1205 52.7748 39.4928 53.7846 37.2174 53.7846C35.4128 53.7846 34.6543 52.6951 34.6543 51.4993C34.6543 50.4098 35.5958 48.6028 37.3482 44.9091L45.8744 27.8489C46.8944 25.9091 47.3913 24.7133 47.6006 23.7035C47.5483 21.9496 48.6206 20.3552 50.4514 20.3552C52.1252 20.3552 53.0145 21.3916 53.0145 22.242C53.0145 23.0923 52.6745 23.3846 52.6745 24.0755C52.6745 25.6168 56.9899 33.6951 58.1668 36.4322C61.8022 43.9524 64.0515 49.0545 64.0515 50.7818C64.0515 52.6154 62.9269 53.7315 61.1484 53.7315C59.6315 53.7315 58.5591 52.9343 58.5591 51.8448C58.5591 51.0476 58.8468 50.4895 58.8468 50.0378C58.8468 49.2937 58.3499 47.6462 55.6037 41.4545L43.5205 42.3049ZM54.0345 37.7608L50.0591 28.593L45.4559 38.372L54.0345 37.7608Z" fill="#28C485"/>
<path d="M106.238 42.3049C103.596 47.6462 103.047 48.6825 102.89 49.4797C102.785 50.1706 102.838 51.021 102.838 51.6853C102.838 52.7748 102.21 53.7846 99.9347 53.7846C98.1301 53.7846 97.3716 52.6951 97.3716 51.4993C97.3716 50.4098 98.3131 48.6028 100.065 44.9091L108.592 27.8489C109.612 25.9091 110.109 24.7133 110.318 23.7035C110.266 21.9496 111.338 20.3552 113.169 20.3552C114.843 20.3552 115.732 21.3916 115.732 22.242C115.732 23.0923 115.392 23.3846 115.392 24.0755C115.392 25.6168 119.707 33.6951 120.884 36.4322C124.52 43.9524 126.769 49.0545 126.769 50.7818C126.769 52.6154 125.644 53.7315 123.866 53.7315C122.349 53.7315 121.276 52.9343 121.276 51.8448C121.276 51.0476 121.564 50.4895 121.564 50.0378C121.564 49.2937 121.067 47.6462 118.321 41.4545L106.238 42.3049ZM116.752 37.7608L112.776 28.593L108.173 38.372L116.752 37.7608Z" fill="#28C485"/>
<path d="M158.441 26.0685C158.441 27.158 157.84 28.1678 156.244 28.1678C154.283 28.1678 153.446 27.3706 153.446 26.414C152.897 25.6168 151.432 25.0056 149.366 25.0056C144.109 25.0056 139.401 29.2042 139.401 32.7385C139.401 34.5455 140.29 35.1832 141.572 35.1832C142.958 35.1832 144.815 34.7846 147.404 34.0406C149.915 33.3497 152.06 32.8448 154.57 32.8448C158.703 32.8448 161.92 34.9972 161.92 39.4881C161.92 42.4909 160.926 44.9622 159.174 47.0615C155.538 51.6056 148.817 54.1301 143.167 54.1301C136.838 54.1301 134.589 49.5063 134.589 47.8587C134.589 46.2643 135.609 44.9091 137.283 44.9091C138.904 44.9091 139.244 46.9552 139.846 48.0979C140.526 49.4531 141.65 50.1441 143.533 50.1441C147.404 50.1441 152.374 48.0448 155.015 45.0685C156.584 43.5804 157.029 41.8266 157.029 39.7804C157.029 37.628 155.957 36.9371 153.943 36.9371C151.772 36.9371 149.915 37.3888 147.378 38.0797C144.815 38.8769 142.67 39.2755 140.552 39.2755C137.073 39.2755 134.51 37.6811 134.51 33.2434C134.51 27.7161 141.52 21.0196 150.072 21.0196C154.518 21.0196 158.441 23.9692 158.441 26.0685Z" fill="#28C485"/>
</svg>
