<svg width="142" height="43" viewBox="0 0 142 43" fill="none" xmlns="http://www.w3.org/2000/svg">
<rect width="142" height="43" rx="6" fill="#28C485"/>
<path fill-rule="evenodd" clip-rule="evenodd" d="M25.9332 22.0718C30.7621 26.8994 31.8575 21.3144 34.9321 24.3869C37.8962 27.3502 39.5999 27.9439 35.8443 31.6983C35.3739 32.0764 32.3851 36.6246 21.8814 26.1238C11.3763 15.6217 15.9219 12.6298 16.3001 12.1595C20.0647 8.39466 20.6481 10.1082 23.6123 13.0715C26.6869 16.1452 21.1043 17.2443 25.9332 22.0718Z" fill="#F2EEE9"/>
<path d="M57.368 25.432C57.4693 25.432 57.5573 25.472 57.632 25.552L58.376 26.36C57.9067 26.9253 57.3307 27.3627 56.648 27.672C55.9653 27.976 55.1493 28.128 54.2 28.128C53.3573 28.128 52.5947 27.984 51.912 27.696C51.2347 27.4027 50.656 26.9973 50.176 26.48C49.696 25.9573 49.3253 25.336 49.064 24.616C48.808 23.896 48.68 23.104 48.68 22.24C48.68 21.376 48.816 20.584 49.088 19.864C49.3653 19.1387 49.752 18.5173 50.248 18C50.7493 17.4773 51.3467 17.072 52.04 16.784C52.7387 16.496 53.5067 16.352 54.344 16.352C55.176 16.352 55.9093 16.488 56.544 16.76C57.184 17.0267 57.7387 17.384 58.208 17.832L57.592 18.704C57.5493 18.7627 57.4987 18.8133 57.44 18.856C57.3813 18.8987 57.3013 18.92 57.2 18.92C57.0933 18.92 56.9707 18.872 56.832 18.776C56.6987 18.6747 56.5253 18.5653 56.312 18.448C56.104 18.3253 55.84 18.216 55.52 18.12C55.2053 18.0187 54.8107 17.968 54.336 17.968C53.7867 17.968 53.2827 18.064 52.824 18.256C52.3653 18.448 51.9707 18.728 51.64 19.096C51.3093 19.464 51.0507 19.912 50.864 20.44C50.6827 20.968 50.592 21.568 50.592 22.24C50.592 22.9173 50.688 23.5227 50.88 24.056C51.072 24.584 51.336 25.032 51.672 25.4C52.008 25.7627 52.4027 26.04 52.856 26.232C53.3093 26.424 53.7973 26.52 54.32 26.52C54.64 26.52 54.9253 26.504 55.176 26.472C55.432 26.4347 55.6667 26.3787 55.88 26.304C56.0933 26.224 56.2933 26.1253 56.48 26.008C56.672 25.8907 56.8613 25.7467 57.048 25.576C57.1547 25.48 57.2613 25.432 57.368 25.432ZM63.0291 19.712C63.6318 19.712 64.1758 19.8107 64.6611 20.008C65.1518 20.2053 65.5678 20.4853 65.9091 20.848C66.2558 21.2107 66.5225 21.6507 66.7091 22.168C66.8958 22.6853 66.9891 23.2667 66.9891 23.912C66.9891 24.5573 66.8958 25.1387 66.7091 25.656C66.5225 26.1733 66.2558 26.616 65.9091 26.984C65.5678 27.3467 65.1518 27.6267 64.6611 27.824C64.1758 28.0213 63.6318 28.12 63.0291 28.12C62.4211 28.12 61.8718 28.0213 61.3811 27.824C60.8958 27.6267 60.4798 27.3467 60.1331 26.984C59.7865 26.616 59.5198 26.1733 59.3331 25.656C59.1465 25.1387 59.0531 24.5573 59.0531 23.912C59.0531 23.2667 59.1465 22.6853 59.3331 22.168C59.5198 21.6507 59.7865 21.2107 60.1331 20.848C60.4798 20.4853 60.8958 20.2053 61.3811 20.008C61.8718 19.8107 62.4211 19.712 63.0291 19.712ZM63.0291 26.776C63.7651 26.776 64.3118 26.5307 64.6691 26.04C65.0318 25.544 65.2131 24.8373 65.2131 23.92C65.2131 23.0027 65.0318 22.296 64.6691 21.8C64.3118 21.2987 63.7651 21.048 63.0291 21.048C62.2825 21.048 61.7278 21.2987 61.3651 21.8C61.0025 22.296 60.8211 23.0027 60.8211 23.92C60.8211 24.8373 61.0025 25.544 61.3651 26.04C61.7278 26.5307 62.2825 26.776 63.0291 26.776ZM70.2498 20.92C70.4258 20.7387 70.6071 20.576 70.7938 20.432C70.9858 20.2827 71.1884 20.1547 71.4018 20.048C71.6151 19.9413 71.8418 19.8587 72.0818 19.8C72.3218 19.7413 72.5831 19.712 72.8658 19.712C73.3138 19.712 73.7058 19.7867 74.0418 19.936C74.3831 20.0853 74.6684 20.296 74.8978 20.568C75.1324 20.84 75.3084 21.168 75.4258 21.552C75.5431 21.9307 75.6018 22.3493 75.6018 22.808V28H73.8898V22.808C73.8898 22.2587 73.7618 21.832 73.5058 21.528C73.2551 21.224 72.8711 21.072 72.3538 21.072C71.9698 21.072 71.6124 21.16 71.2818 21.336C70.9564 21.512 70.6498 21.752 70.3618 22.056V28H68.6418V19.84H69.6818C69.9164 19.84 70.0658 19.9493 70.1298 20.168L70.2498 20.92ZM80.1171 28.128C79.4398 28.128 78.9171 27.9387 78.5491 27.56C78.1865 27.176 78.0051 26.6373 78.0051 25.944V21.192H77.1091C77.0131 21.192 76.9305 21.1627 76.8611 21.104C76.7918 21.04 76.7571 20.9467 76.7571 20.824V20.128L78.0771 19.936L78.4531 17.576C78.4798 17.4853 78.5251 17.4133 78.5891 17.36C78.6531 17.3013 78.7385 17.272 78.8451 17.272H79.7251V19.952H81.9891V21.192H79.7251V25.824C79.7251 26.1173 79.7971 26.3413 79.9411 26.496C80.0851 26.6507 80.2771 26.728 80.5171 26.728C80.6505 26.728 80.7651 26.712 80.8611 26.68C80.9571 26.6427 81.0398 26.6053 81.1091 26.568C81.1785 26.5253 81.2371 26.488 81.2851 26.456C81.3385 26.4187 81.3891 26.4 81.4371 26.4C81.5331 26.4 81.6105 26.4533 81.6691 26.56L82.1811 27.4C81.9145 27.6347 81.5998 27.816 81.2371 27.944C80.8745 28.0667 80.5011 28.128 80.1171 28.128ZM87.7049 24.432C87.0915 24.4533 86.5742 24.504 86.1529 24.584C85.7315 24.6587 85.3902 24.7573 85.1289 24.88C84.8675 24.9973 84.6782 25.1387 84.5609 25.304C84.4489 25.4693 84.3929 25.6507 84.3929 25.848C84.3929 26.04 84.4222 26.2053 84.4809 26.344C84.5449 26.4773 84.6302 26.5893 84.7369 26.68C84.8489 26.7653 84.9769 26.8293 85.1209 26.872C85.2702 26.9093 85.4329 26.928 85.6089 26.928C86.0569 26.928 86.4409 26.8453 86.7609 26.68C87.0862 26.5093 87.4009 26.264 87.7049 25.944V24.432ZM83.1449 20.976C84.0675 20.1173 85.1662 19.688 86.4409 19.688C86.9102 19.688 87.3262 19.7653 87.6889 19.92C88.0569 20.0693 88.3635 20.2827 88.6089 20.56C88.8595 20.8373 89.0489 21.168 89.1769 21.552C89.3102 21.9307 89.3769 22.352 89.3769 22.816V28H88.6089C88.4435 28 88.3182 27.976 88.2329 27.928C88.1475 27.8747 88.0755 27.7707 88.0169 27.616L87.8489 26.952C87.6409 27.1387 87.4355 27.3067 87.2329 27.456C87.0302 27.6 86.8195 27.7227 86.6009 27.824C86.3875 27.9253 86.1555 28 85.9049 28.048C85.6595 28.1013 85.3875 28.128 85.0889 28.128C84.7582 28.128 84.4489 28.0827 84.1609 27.992C83.8782 27.9013 83.6329 27.7653 83.4249 27.584C83.2169 27.3973 83.0515 27.168 82.9289 26.896C82.8115 26.624 82.7529 26.304 82.7529 25.936C82.7529 25.6213 82.8355 25.3147 83.0009 25.016C83.1715 24.7173 83.4489 24.4507 83.8329 24.216C84.2222 23.976 84.7315 23.7787 85.3609 23.624C85.9955 23.4693 86.7769 23.3813 87.7049 23.36V22.816C87.7049 22.2293 87.5795 21.792 87.3289 21.504C87.0782 21.216 86.7102 21.072 86.2249 21.072C85.8942 21.072 85.6169 21.1147 85.3929 21.2C85.1689 21.28 84.9742 21.368 84.8089 21.464C84.6435 21.56 84.4969 21.6507 84.3689 21.736C84.2409 21.816 84.1049 21.856 83.9609 21.856C83.8435 21.856 83.7422 21.8267 83.6569 21.768C83.5769 21.704 83.5102 21.6267 83.4569 21.536L83.1449 20.976ZM97.1598 21.44C97.1064 21.5093 97.0558 21.5627 97.0078 21.6C96.9598 21.6373 96.8904 21.656 96.7998 21.656C96.7091 21.656 96.6131 21.624 96.5118 21.56C96.4158 21.496 96.2984 21.4267 96.1598 21.352C96.0264 21.272 95.8638 21.2 95.6718 21.136C95.4798 21.072 95.2398 21.04 94.9518 21.04C94.5784 21.04 94.2504 21.1067 93.9678 21.24C93.6904 21.3733 93.4558 21.5653 93.2638 21.816C93.0771 22.0613 92.9358 22.3627 92.8398 22.72C92.7491 23.072 92.7038 23.4693 92.7038 23.912C92.7038 24.3707 92.7544 24.7787 92.8558 25.136C92.9571 25.4933 93.1011 25.7947 93.2878 26.04C93.4798 26.2853 93.7091 26.472 93.9758 26.6C94.2478 26.728 94.5518 26.792 94.8878 26.792C95.2184 26.792 95.4878 26.752 95.6958 26.672C95.9038 26.592 96.0771 26.504 96.2158 26.408C96.3544 26.312 96.4718 26.224 96.5678 26.144C96.6691 26.064 96.7758 26.024 96.8878 26.024C97.0264 26.024 97.1331 26.0773 97.2078 26.184L97.6958 26.816C97.4984 27.056 97.2798 27.2587 97.0398 27.424C96.7998 27.5893 96.5464 27.7253 96.2798 27.832C96.0131 27.9333 95.7358 28.0053 95.4478 28.048C95.1598 28.096 94.8691 28.12 94.5758 28.12C94.0691 28.12 93.5944 28.0267 93.1518 27.84C92.7144 27.648 92.3304 27.3733 91.9998 27.016C91.6744 26.6533 91.4158 26.2133 91.2238 25.696C91.0371 25.1733 90.9438 24.5787 90.9438 23.912C90.9438 23.3093 91.0291 22.752 91.1998 22.24C91.3704 21.7227 91.6184 21.2773 91.9438 20.904C92.2744 20.5307 92.6824 20.24 93.1678 20.032C93.6531 19.8187 94.2131 19.712 94.8478 19.712C95.4398 19.712 95.9598 19.808 96.4078 20C96.8611 20.192 97.2638 20.464 97.6158 20.816L97.1598 21.44ZM101.695 28.128C101.018 28.128 100.495 27.9387 100.127 27.56C99.7646 27.176 99.5833 26.6373 99.5833 25.944V21.192H98.6873C98.5913 21.192 98.5086 21.1627 98.4393 21.104C98.3699 21.04 98.3353 20.9467 98.3353 20.824V20.128L99.6553 19.936L100.031 17.576C100.058 17.4853 100.103 17.4133 100.167 17.36C100.231 17.3013 100.317 17.272 100.423 17.272H101.303V19.952H103.567V21.192H101.303V25.824C101.303 26.1173 101.375 26.3413 101.519 26.496C101.663 26.6507 101.855 26.728 102.095 26.728C102.229 26.728 102.343 26.712 102.439 26.68C102.535 26.6427 102.618 26.6053 102.687 26.568C102.757 26.5253 102.815 26.488 102.863 26.456C102.917 26.4187 102.967 26.4 103.015 26.4C103.111 26.4 103.189 26.4533 103.247 26.56L103.759 27.4C103.493 27.6347 103.178 27.816 102.815 27.944C102.453 28.0667 102.079 28.128 101.695 28.128ZM113.771 26.488C114.214 26.488 114.609 26.4133 114.955 26.264C115.307 26.1147 115.603 25.9067 115.843 25.64C116.089 25.3733 116.275 25.0533 116.403 24.68C116.531 24.3013 116.595 23.8827 116.595 23.424V16.48H118.459V23.424C118.459 24.1013 118.35 24.728 118.131 25.304C117.918 25.88 117.609 26.3787 117.203 26.8C116.798 27.216 116.305 27.544 115.723 27.784C115.147 28.0187 114.497 28.136 113.771 28.136C113.046 28.136 112.393 28.0187 111.811 27.784C111.235 27.544 110.745 27.216 110.339 26.8C109.934 26.3787 109.622 25.88 109.403 25.304C109.19 24.728 109.083 24.1013 109.083 23.424V16.48H110.955V23.416C110.955 23.8747 111.019 24.2933 111.147 24.672C111.275 25.0453 111.459 25.368 111.699 25.64C111.939 25.9067 112.233 26.1147 112.579 26.264C112.931 26.4133 113.329 26.488 113.771 26.488ZM125.248 21.32C125.205 21.3947 125.157 21.448 125.104 21.48C125.051 21.512 124.984 21.528 124.904 21.528C124.813 21.528 124.715 21.5013 124.608 21.448C124.501 21.3893 124.376 21.3253 124.232 21.256C124.088 21.1867 123.917 21.1253 123.72 21.072C123.528 21.0133 123.301 20.984 123.04 20.984C122.827 20.984 122.632 21.0107 122.456 21.064C122.285 21.112 122.139 21.184 122.016 21.28C121.899 21.3707 121.808 21.48 121.744 21.608C121.68 21.7307 121.648 21.864 121.648 22.008C121.648 22.2 121.707 22.36 121.824 22.488C121.941 22.616 122.096 22.728 122.288 22.824C122.48 22.9147 122.699 22.9973 122.944 23.072C123.189 23.1467 123.44 23.2267 123.696 23.312C123.952 23.3973 124.203 23.496 124.448 23.608C124.693 23.72 124.912 23.8587 125.104 24.024C125.296 24.184 125.451 24.3813 125.568 24.616C125.685 24.8453 125.744 25.1253 125.744 25.456C125.744 25.84 125.675 26.1947 125.536 26.52C125.397 26.8453 125.195 27.128 124.928 27.368C124.661 27.608 124.328 27.7947 123.928 27.928C123.533 28.0613 123.08 28.128 122.568 28.128C122.285 28.128 122.011 28.1013 121.744 28.048C121.483 28 121.232 27.9333 120.992 27.848C120.757 27.7573 120.536 27.6507 120.328 27.528C120.125 27.4053 119.944 27.272 119.784 27.128L120.184 26.472C120.232 26.392 120.291 26.3307 120.36 26.288C120.435 26.24 120.525 26.216 120.632 26.216C120.744 26.216 120.853 26.2533 120.96 26.328C121.072 26.3973 121.2 26.4747 121.344 26.56C121.493 26.6453 121.672 26.7253 121.88 26.8C122.088 26.8693 122.347 26.904 122.656 26.904C122.912 26.904 123.133 26.8747 123.32 26.816C123.507 26.752 123.661 26.6667 123.784 26.56C123.907 26.4533 123.997 26.3333 124.056 26.2C124.115 26.0613 124.144 25.9147 124.144 25.76C124.144 25.552 124.085 25.3813 123.968 25.248C123.851 25.1147 123.693 25 123.496 24.904C123.304 24.808 123.083 24.7227 122.832 24.648C122.587 24.5733 122.336 24.4933 122.08 24.408C121.824 24.3227 121.571 24.224 121.32 24.112C121.075 24 120.853 23.8587 120.656 23.688C120.464 23.512 120.309 23.3013 120.192 23.056C120.075 22.8053 120.016 22.5013 120.016 22.144C120.016 21.8187 120.08 21.5093 120.208 21.216C120.341 20.9227 120.533 20.664 120.784 20.44C121.04 20.216 121.352 20.04 121.72 19.912C122.093 19.7787 122.523 19.712 123.008 19.712C123.557 19.712 124.056 19.8 124.504 19.976C124.952 20.152 125.328 20.392 125.632 20.696L125.248 21.32Z" fill="#F2EEE9"/>
</svg>
